<svg xmlns="http://www.w3.org/2000/svg" version="1.1" xmlns:xlink="http://www.w3.org/1999/xlink" xmlns:svgjs="http://svgjs.com/svgjs" width="260" height="260"><svg version="1.2" xmlns="http://www.w3.org/2000/svg" viewBox="0 0 260 260" width="260" height="260"><style>.a{fill:#181e34}.b{fill:#f7f1f8}</style><path class="a" d="m0 0h260v260h-260z"></path><path class="b" d="m28.7 109.5h8.4q2.7 0 5 0.9 2.2 0.8 3.8 2.2 1.6 1.4 2.4 3.3 0.9 1.9 0.9 4.1v16.6q0 2.1-0.9 4-0.8 1.9-2.4 3.3-1.6 1.5-3.8 2.3-2.3 0.8-5 0.8h-8.4q-2.8 0-5-0.8-2.3-0.8-3.9-2.3-1.5-1.4-2.4-3.3-0.8-1.9-0.8-4v-16.6q0-2.2 0.8-4.1 0.9-1.9 2.4-3.3 1.6-1.4 3.9-2.2 2.2-0.9 5-0.9zm9.4 16.9l0.4 1.5v6.7h2.9v-7l-1-2.6-3.1-1.1 3-1.4 0.9-2.5v-3l-0.4-2.3-1.8-2.3-2.7-0.4h-10.2v22.6h2.9v-9.1h7.1zm-9-11.5h7.1l1.9 0.9 0.2 1.6v2.9l-0.4 1.5-1.7 0.8h-7.1zm32-5.4h8.4q2.8 0 5 0.9 2.3 0.8 3.8 2.2 1.6 1.4 2.5 3.3 0.8 1.9 0.8 4.1v16.6q0 2.1-0.8 4-0.9 1.9-2.5 3.3-1.5 1.5-3.8 2.3-2.2 0.8-5 0.8h-8.4q-2.8 0-5-0.8-2.2-0.8-3.8-2.3-1.6-1.4-2.4-3.3-0.9-1.9-0.9-4v-16.6q0-2.2 0.9-4.1 0.8-1.9 2.4-3.3 1.6-1.4 3.8-2.2 2.2-0.9 5-0.9zm13.9 20.7v-18.2h-2.9v17.9q-0.1 0.4-0.2 0.8-0.1 0.4-0.2 0.8l-1.8 0.2h-7l-1.8-0.2-0.4-1.7v-17.8h-2.8v18.2l0.3 2.4 1.8 1.7 2.7 0.3h7.4l2.8-0.3 1.7-1.7zm32.6 4.4v-22.6h-2.8v9.5h-11.4v-9.5h-2.9v22.6h2.9v-10.2h11.4v10.2zm-14.2-25.1h8.5q2.7 0 5 0.8 2.2 0.8 3.8 2.3 1.6 1.4 2.4 3.3 0.9 1.9 0.9 4v16.6q0 2.2-0.9 4.1-0.8 1.9-2.4 3.3-1.6 1.4-3.8 2.2-2.3 0.9-5 0.9h-8.5q-2.7 0-5-0.9-2.2-0.8-3.8-2.2-1.5-1.4-2.4-3.3-0.8-1.9-0.8-4.1v-16.6q0-2.1 0.8-4 0.9-1.9 2.4-3.3 1.6-1.5 3.8-2.3 2.3-0.8 5-0.8zm36.7 22.2h-6.5v2.9h15.8v-2.9h-6.4v-16.8h6.4v-2.9h-15.8v2.9h6.5zm-4.3-22.2h8.4q2.8 0 5 0.8 2.3 0.8 3.8 2.2 1.6 1.5 2.5 3.4 0.8 1.9 0.8 4v16.6q0 2.2-0.8 4.1-0.9 1.9-2.5 3.3-1.5 1.4-3.8 2.2-2.2 0.8-5 0.8h-8.4q-2.7 0-5-0.8-2.2-0.8-3.8-2.2-1.6-1.4-2.4-3.3-0.9-1.9-0.9-4.1v-16.6q0-2.1 0.9-4 0.8-1.9 2.4-3.4 1.6-1.4 3.8-2.2 2.3-0.8 5-0.8zm32.4 0h8.4q2.8 0 5 0.8 2.3 0.8 3.8 2.2 1.6 1.5 2.5 3.4 0.8 1.9 0.8 4v16.6q0 2.2-0.8 4.1-0.9 1.9-2.5 3.3-1.5 1.4-3.8 2.2-2.2 0.8-5 0.8h-8.4q-2.8 0-5-0.8-2.3-0.8-3.8-2.2-1.6-1.4-2.4-3.3-0.9-1.9-0.9-4.1v-16.6q0-2.1 0.9-4 0.8-1.9 2.4-3.4 1.5-1.4 3.8-2.2 2.2-0.8 5-0.8zm14.1 20.7v-13.8l-0.4-2.3-1.7-1.8-2.8-0.4h-12.2v22.7h12.2l2.8-0.4 1.7-1.7zm-2.9-0.3l-0.4 1.5-1.8 0.3h-9.2v-16.8h9.2l2 0.3 0.2 1.6zm21.2-20.4h8.4q2.8 0 5 0.9 2.3 0.8 3.8 2.2 1.6 1.4 2.4 3.3 0.9 1.9 0.9 4.1v16.6q0 2.1-0.9 4-0.8 1.9-2.4 3.3-1.5 1.5-3.8 2.3-2.2 0.8-5 0.8h-8.4q-2.8 0-5-0.8-2.3-0.8-3.8-2.3-1.6-1.4-2.5-3.3-0.8-1.9-0.8-4v-16.6q0-2.2 0.8-4.1 0.9-1.9 2.5-3.3 1.5-1.4 3.8-2.2 2.2-0.9 5-0.9zm12 13.8v-6.9l-0.4-2.3-1.7-1.8-2.8-0.3h-5.9l-2.8 0.3-1.7 1.8-0.4 2.3v13l0.4 2.3 1.7 1.7 2.8 0.3h6.9l3.2-0.4-0.7-2.9-2.6 0.4h-6.6l-1.8-0.3-0.4-1.6v-5.6zm-2.9-2.9h-9.8v-3.7l0.2-1.6 1.9-0.3h5.6l1.8 0.3 0.3 1.7zm26.8 13.8l1.7 0.6 1.8-0.6 1.7-1.6 5.3-20.1-3.1-0.5-5 19.5-0.6 0.2-0.7-0.1-4.9-19.6-3.2 0.5 5.4 20.1zm-3.5-24.7h8.4q2.8 0 5 0.8 2.2 0.8 3.8 2.2 1.6 1.5 2.4 3.4 0.9 1.9 0.9 4v16.6q0 2.2-0.9 4.1-0.8 1.9-2.4 3.3-1.6 1.4-3.8 2.2-2.2 0.8-5 0.8h-8.4q-2.8 0-5-0.8-2.3-0.8-3.9-2.2-1.5-1.4-2.4-3.3-0.8-1.9-0.8-4.1v-16.6q0-2.1 0.8-4 0.9-1.9 2.4-3.4 1.6-1.4 3.9-2.2 2.2-0.8 5-0.8z"></path></svg><style>@media (prefers-color-scheme: light) { :root { filter: none; } }
</style></svg>